<?xml version="1.0" encoding="UTF-8" standalone="no"?>
<!DOCTYPE svg PUBLIC "-//W3C//DTD SVG 1.1//EN" "http://www.w3.org/Graphics/SVG/1.1/DTD/svg11.dtd">
<svg version="1.1" xmlns="http://www.w3.org/2000/svg" xmlns:xlink="http://www.w3.org/1999/xlink" preserveAspectRatio="xMidYMid meet" viewBox="0 0 295 199" width="295" height="199"><defs><path d="M94.9 5.81L95.24 5.87L95.57 5.94L95.9 6.02L96.21 6.12L96.52 6.22L96.81 6.33L97.1 6.45L97.38 6.58L97.65 6.73L97.91 6.87L98.16 7.03L98.41 7.19L98.66 7.37L98.89 7.54L99.12 7.73L99.34 7.93L99.56 8.13L99.77 8.34L99.97 8.55L100.17 8.77L100.37 9L100.56 9.24L100.75 9.48L100.93 9.72L101.11 9.98L101.29 10.23L101.47 10.49L101.64 10.76L101.81 11.03L101.98 11.3L102.15 11.58L102.31 11.86L102.48 12.14L102.64 12.43L102.81 12.72L107.98 23.9L281.13 23.9L281.49 23.91L281.86 23.93L282.22 23.96L282.56 24.01L282.91 24.07L283.26 24.15L283.6 24.24L283.93 24.33L284.25 24.44L284.58 24.57L284.9 24.7L285.2 24.85L285.5 25.01L285.8 25.18L286.09 25.36L286.37 25.54L286.63 25.75L286.9 25.95L287.16 26.17L287.4 26.4L287.63 26.63L287.86 26.88L288.08 27.13L288.29 27.39L288.48 27.66L288.67 27.94L288.85 28.21L289.01 28.51L289.16 28.81L289.3 29.11L289.43 29.42L289.54 29.73L289.65 30.05L289.74 30.37L289.82 30.7L289.88 31.04L289.93 31.38L289.97 31.72L289.99 32.07L290 32.42L290 185.81L289.99 186.16L289.97 186.51L289.93 186.85L289.88 187.19L289.82 187.53L289.74 187.85L289.65 188.18L289.54 188.5L289.43 188.82L289.3 189.12L289.16 189.42L289.01 189.72L288.85 190.01L288.67 190.29L288.48 190.57L288.29 190.84L288.08 191.1L287.86 191.35L287.63 191.6L287.4 191.84L287.16 192.06L286.9 192.28L286.63 192.48L286.37 192.68L286.09 192.87L285.8 193.05L285.5 193.22L285.2 193.38L284.9 193.53L284.58 193.66L284.25 193.78L283.93 193.89L283.6 193.99L283.26 194.08L282.91 194.15L282.56 194.22L282.22 194.26L281.86 194.3L281.49 194.32L281.13 194.33L15.03 194.33L14.67 194.32L14.3 194.3L13.94 194.26L13.6 194.22L13.25 194.15L12.9 194.08L12.56 193.99L12.23 193.89L11.91 193.78L11.58 193.66L11.26 193.53L10.96 193.38L10.66 193.22L10.36 193.05L10.07 192.87L9.79 192.68L9.53 192.48L9.26 192.28L9 192.06L8.76 191.84L8.53 191.6L8.3 191.35L8.08 191.1L7.87 190.84L7.68 190.57L7.49 190.29L7.31 190.01L7.15 189.72L7 189.42L6.86 189.12L6.73 188.82L6.62 188.5L6.51 188.18L6.42 187.85L6.34 187.53L6.28 187.19L6.23 186.85L6.19 186.51L6.17 186.16L6.16 185.81L6.16 32.42L6.17 32.07L6.19 31.72L6.23 31.38L6.28 31.04L6.34 30.7L6.42 30.37L6.51 30.05L6.62 29.73L6.73 29.42L6.86 29.11L7 28.81L7.15 28.51L7.31 28.21L7.49 27.94L7.68 27.66L7.87 27.39L8.08 27.13L8.3 26.88L8.53 26.63L8.76 26.4L9 26.17L9.26 25.95L9.53 25.75L9.79 25.54L10.07 25.36L10.36 25.18L10.66 25.01L10.96 24.85L11.26 24.7L11.58 24.57L11.91 24.44L12.23 24.33L12.56 24.24L12.9 24.15L13.25 24.07L13.6 24.01L13.94 23.96L14.3 23.93L14.67 23.91L15.03 23.9L19.3 23.9L24.47 12.72L24.59 12.43L24.72 12.14L24.84 11.86L24.98 11.58L25.12 11.3L25.27 11.03L25.41 10.76L25.57 10.49L25.74 10.23L25.9 9.98L26.08 9.72L26.25 9.48L26.44 9.24L26.64 9L26.83 8.77L27.04 8.55L27.25 8.34L27.47 8.13L27.69 7.93L27.93 7.73L28.17 7.54L28.42 7.37L28.66 7.19L28.93 7.03L29.2 6.87L29.48 6.73L29.77 6.58L30.06 6.45L30.36 6.33L30.68 6.22L30.99 6.12L31.32 6.02L31.66 5.94L32 5.87L32.36 5.81L32.71 5.75L33.09 5.71L33.47 5.69L33.86 5.67L34.26 5.67L93.02 5.67L93.41 5.67L93.8 5.69L94.18 5.71L94.54 5.75L94.9 5.81Z" id="d4lXqfFZP5"></path><path d="M94.9 5.81L95.24 5.87L95.57 5.94L95.9 6.02L96.21 6.12L96.52 6.22L96.81 6.33L97.1 6.45L97.38 6.58L97.65 6.73L97.91 6.87L98.16 7.03L98.41 7.19L98.66 7.37L98.89 7.54L99.12 7.73L99.34 7.93L99.56 8.13L99.77 8.34L99.97 8.55L100.17 8.77L100.37 9L100.56 9.24L100.75 9.48L100.93 9.72L101.11 9.98L101.29 10.23L101.47 10.49L101.64 10.76L101.81 11.03L101.98 11.3L102.15 11.58L102.31 11.86L102.48 12.14L102.64 12.43L102.81 12.72L107.98 23.9L281.13 23.9L281.49 23.91L281.86 23.93L282.22 23.96L282.56 24.01L282.91 24.07L283.26 24.15L283.6 24.24L283.93 24.33L284.25 24.44L284.58 24.57L284.9 24.7L285.2 24.85L285.5 25.01L285.8 25.18L286.09 25.36L286.37 25.54L286.63 25.75L286.9 25.95L287.16 26.17L287.4 26.4L287.63 26.63L287.86 26.88L288.08 27.13L288.29 27.39L288.48 27.66L288.67 27.94L288.85 28.21L289.01 28.51L289.16 28.81L289.3 29.11L289.43 29.42L289.54 29.73L289.65 30.05L289.74 30.37L289.82 30.7L289.88 31.04L289.93 31.38L289.97 31.72L289.99 32.07L290 32.42L290 185.81L289.99 186.16L289.97 186.51L289.93 186.85L289.88 187.19L289.82 187.53L289.74 187.85L289.65 188.18L289.54 188.5L289.43 188.82L289.3 189.12L289.16 189.42L289.01 189.72L288.85 190.01L288.67 190.29L288.48 190.57L288.29 190.84L288.08 191.1L287.86 191.35L287.63 191.6L287.4 191.84L287.16 192.06L286.9 192.28L286.63 192.48L286.37 192.68L286.09 192.87L285.8 193.05L285.5 193.22L285.2 193.38L284.9 193.53L284.58 193.66L284.25 193.78L283.93 193.89L283.6 193.99L283.26 194.08L282.91 194.15L282.56 194.22L282.22 194.26L281.86 194.3L281.49 194.32L281.13 194.33L15.03 194.33L14.67 194.32L14.3 194.3L13.94 194.26L13.6 194.22L13.25 194.15L12.9 194.08L12.56 193.99L12.23 193.89L11.91 193.78L11.58 193.66L11.26 193.53L10.96 193.38L10.66 193.22L10.36 193.05L10.07 192.87L9.79 192.68L9.53 192.48L9.26 192.28L9 192.06L8.76 191.84L8.53 191.6L8.3 191.35L8.08 191.1L7.87 190.84L7.68 190.57L7.49 190.29L7.31 190.01L7.15 189.72L7 189.42L6.86 189.12L6.73 188.82L6.62 188.5L6.51 188.18L6.42 187.85L6.34 187.53L6.28 187.19L6.23 186.85L6.19 186.51L6.17 186.16L6.16 185.81L6.16 32.42L6.17 32.07L6.19 31.72L6.23 31.38L6.28 31.04L6.34 30.7L6.42 30.37L6.51 30.05L6.62 29.73L6.73 29.42L6.86 29.11L7 28.81L7.15 28.51L7.31 28.21L7.49 27.94L7.68 27.66L7.87 27.39L8.08 27.13L8.3 26.88L8.53 26.63L8.76 26.4L9 26.17L9.26 25.95L9.53 25.75L9.79 25.54L10.07 25.36L10.36 25.18L10.66 25.01L10.96 24.85L11.26 24.7L11.58 24.57L11.91 24.44L12.23 24.33L12.56 24.24L12.9 24.15L13.25 24.07L13.6 24.01L13.94 23.96L14.3 23.93L14.67 23.91L15.03 23.9L19.3 23.9L24.47 12.72L24.59 12.43L24.72 12.14L24.84 11.86L24.98 11.58L25.12 11.3L25.27 11.03L25.41 10.76L25.57 10.49L25.74 10.23L25.9 9.98L26.08 9.72L26.25 9.48L26.44 9.24L26.64 9L26.83 8.77L27.04 8.55L27.25 8.34L27.47 8.13L27.69 7.93L27.93 7.73L28.17 7.54L28.42 7.37L28.66 7.19L28.93 7.03L29.2 6.87L29.48 6.73L29.77 6.58L30.06 6.45L30.36 6.33L30.68 6.22L30.99 6.12L31.32 6.02L31.66 5.94L32 5.87L32.36 5.81L32.71 5.75L33.09 5.71L33.47 5.69L33.86 5.67L34.26 5.67L93.02 5.67L93.41 5.67L93.8 5.69L94.18 5.71L94.54 5.75L94.9 5.81Z" id="gIDtV6eWS"></path><path d="M151.85 69.03C188.37 69.03 218.03 89.07 218.03 113.76C218.03 138.45 188.37 158.5 151.85 158.5C115.31 158.5 85.67 138.45 85.67 113.76C85.67 89.07 115.31 69.03 151.85 69.03Z" id="c1okcGTfn"></path><path d="M151.85 69.03C188.37 69.03 218.03 89.07 218.03 113.76C218.03 138.45 188.37 158.5 151.85 158.5C115.31 158.5 85.67 138.45 85.67 113.76C85.67 89.07 115.31 69.03 151.85 69.03Z" id="b4IkJ1IeFq"></path><path d="M226.63 21.88L226.63 8.77L249.3 8.77L249.3 21.88L226.63 21.88Z" id="f12LKWcbM8"></path><path d="M226.63 21.88L226.63 8.77L249.3 8.77L249.3 21.88L226.63 21.88Z" id="a9WS99X2g"></path><path d="M150.68 70.21C126.64 70.83 107.64 90.85 108.28 114.88C108.93 138.93 128.97 157.93 153.02 157.31C177.06 156.68 196.05 136.67 195.41 112.63C194.77 88.6 174.73 69.58 150.68 70.21Z" id="c2gB0UXWje"></path><path d="M150.68 70.21C126.64 70.83 107.64 90.85 108.28 114.88C108.93 138.93 128.97 157.93 153.02 157.31C177.06 156.68 196.05 136.67 195.41 112.63C194.77 88.6 174.73 69.58 150.68 70.21Z" id="aapKjFKb1"></path><path d="M81.63 41.26C72.61 41.26 52.28 41.26 43.25 41.26C39.52 41.26 36.48 37.88 36.48 33.73C36.48 30.36 36.48 27.78 36.48 24.41C36.48 20.26 39.52 16.88 43.25 16.88C52.28 16.88 72.61 16.88 81.63 16.88C85.38 16.88 88.41 20.26 88.41 24.41C88.41 27.78 88.41 30.36 88.41 33.73C88.41 37.88 85.38 41.26 81.63 41.26Z" id="gocGE2oZA"></path><path d="M81.63 41.26C72.61 41.26 52.28 41.26 43.25 41.26C39.52 41.26 36.48 37.88 36.48 33.73C36.48 30.36 36.48 27.78 36.48 24.41C36.48 20.26 39.52 16.88 43.25 16.88C52.28 16.88 72.61 16.88 81.63 16.88C85.38 16.88 88.41 20.26 88.41 24.41C88.41 27.78 88.41 30.36 88.41 33.73C88.41 37.88 85.38 41.26 81.63 41.26Z" id="dQPjgj3qc"></path><path d="M153.87 140.09C139.56 140.88 127.29 129.72 126.5 115.19C125.7 100.65 136.66 88.22 150.97 87.43C165.28 86.65 177.54 97.81 178.34 112.34C179.14 126.87 168.17 139.31 153.87 140.09Z" id="cpyde8H6"></path><path d="M131.49 107.06C125.23 107.06 120.15 101.6 120.15 94.88C120.15 88.15 125.23 82.69 131.49 82.69C137.75 82.69 142.83 88.15 142.83 94.88C142.83 101.6 137.75 107.06 131.49 107.06Z" id="c7gLz1vXQC"></path></defs><g><g><g><use xlink:href="#d4lXqfFZP5" opacity="1" fill="fff" fill-opacity="0"></use><g><use xlink:href="#d4lXqfFZP5" opacity="1" fill-opacity="0" stroke="fff" stroke-width="1" stroke-opacity="0"></use></g></g><g><use xlink:href="#gIDtV6eWS" opacity="1" fill="fff" fill-opacity="0"></use><g><use xlink:href="#gIDtV6eWS" opacity="1" fill-opacity="0" stroke="#fff" stroke-width="7" stroke-opacity="1"></use></g></g><g><use xlink:href="#c1okcGTfn" opacity="1" fill="fff" fill-opacity="0"></use><g><use xlink:href="#c1okcGTfn" opacity="1" fill-opacity="0" stroke="fff" stroke-width="1" stroke-opacity="0"></use></g></g><g><use xlink:href="#b4IkJ1IeFq" opacity="1" fill="fff" fill-opacity="0"></use><g><use xlink:href="#b4IkJ1IeFq" opacity="1" fill-opacity="0" stroke="#fff" stroke-width="7" stroke-opacity="1"></use></g></g><g><use xlink:href="#f12LKWcbM8" opacity="1" fill="fff" fill-opacity="0"></use><g><use xlink:href="#f12LKWcbM8" opacity="1" fill-opacity="0" stroke="fff" stroke-width="1" stroke-opacity="0"></use></g></g><g><use xlink:href="#a9WS99X2g" opacity="1" fill="fff" fill-opacity="0"></use><g><use xlink:href="#a9WS99X2g" opacity="1" fill-opacity="0" stroke="#fff" stroke-width="7" stroke-opacity="1"></use></g></g><g><use xlink:href="#c2gB0UXWje" opacity="1" fill="#331b04" fill-opacity="1"></use><g><use xlink:href="#c2gB0UXWje" opacity="1" fill-opacity="0" stroke="fff" stroke-width="1" stroke-opacity="0"></use></g></g><g><use xlink:href="#aapKjFKb1" opacity="1" fill="fff" fill-opacity="0"></use><g><use xlink:href="#aapKjFKb1" opacity="1" fill-opacity="0" stroke="fff" stroke-width="1" stroke-opacity="0"></use></g></g><g><use xlink:href="#gocGE2oZA" opacity="1" fill="fff" fill-opacity="0"></use><g><use xlink:href="#gocGE2oZA" opacity="1" fill-opacity="0" stroke="fff" stroke-width="1" stroke-opacity="0"></use></g></g><g><use xlink:href="#dQPjgj3qc" opacity="1" fill="fff" fill-opacity="0"></use><g><use xlink:href="#dQPjgj3qc" opacity="1" fill-opacity="0" stroke="#fff" stroke-width="7" stroke-opacity="1"></use></g></g><g><use xlink:href="#cpyde8H6" opacity="1" fill="#020202" fill-opacity="1"></use><g><use xlink:href="#cpyde8H6" opacity="1" fill-opacity="0" stroke="fff" stroke-width="1" stroke-opacity="0"></use></g></g><g><use xlink:href="#c7gLz1vXQC" opacity="1" fill="#f5f1f1" fill-opacity="1"></use><g><use xlink:href="#c7gLz1vXQC" opacity="1" fill-opacity="0" stroke="fff" stroke-width="1" stroke-opacity="0"></use></g></g></g></g></svg>